<?xml version="1.0" encoding="UTF-8"?><svg id="FORUS_Logo_Collection_Colour" xmlns="http://www.w3.org/2000/svg" viewBox="0 0 756.15 761.91"><defs><style>.cls-1{fill:#f5971b;}.cls-2{fill:#027db8;}.cls-3{fill:#fbba00;}.cls-4{fill:#692482;}.cls-5{fill:#8dbf2e;}.cls-6{fill:#dd062b;}.cls-7{fill:#0844af;}.cls-8{fill:#81cac9;}</style></defs><path class="cls-7" d="M491.11,738.17h-65.91l-47.12-126.99-47.42,126.99h-65.61l83.21-210.84h59.35l83.51,210.84Z"/><path class="cls-3" d="M265.03,23.74h65.91l47.12,126.99,47.42-126.99h65.61l-83.21,210.84h-59.35L265.03,23.74Z"/><path class="cls-6" d="M735.18,266.24v66.66l-125.57,47.66,125.57,47.96v66.36l-208.48-84.16v-60.03l208.48-84.46Z"/><path class="cls-8" d="M20.97,495.27v-66.66l125.57-47.66-125.57-47.96v-66.36l208.48,84.16v60.03L20.97,495.27Z"/><path class="cls-1" d="M550.61,47.09l46.61,47.14-55.47,123.5,122.32-55.88,46.4,46.92-206.26,89.58-41.97-42.45,88.37-208.81Z"/><path class="cls-5" d="M43.88,208.77l46.61-47.14,122.11,56.1-55.26-123.71,46.4-46.92,88.58,208.6-41.97,42.45L43.88,208.77Z"/><path class="cls-4" d="M708.81,552.15l-46.61,47.14-122.11-56.1,55.26,123.71-46.4,46.92-88.58-208.6,41.97-42.45,206.47,89.37Z"/><path class="cls-2" d="M205.4,714.04l-46.61-47.14,55.47-123.49-122.32,55.88-46.4-46.92,206.26-89.58,41.97,42.45-88.37,208.81Z"/></svg>